<svg xmlns="http://www.w3.org/2000/svg" viewBox="0 0 1200 760" role="img" aria-labelledby="title desc">
  <title id="title">Golden IP archive and evidence ledger</title>
  <desc id="desc">A copyright packet, trademark compass, patent blueprint cube, and evidence receipts in a golden archive.</desc>
  <defs>
    <linearGradient id="bg" x1="0" x2="1" y1="0" y2="1"><stop offset="0" stop-color="#fffaf0"/><stop offset="1" stop-color="#f8c75d"/></linearGradient>
    <filter id="shadow" x="-20%" y="-20%" width="140%" height="140%"><feDropShadow dx="0" dy="22" stdDeviation="20" flood-color="#5e3905" flood-opacity=".2"/></filter>
  </defs>
  <rect width="1200" height="760" rx="54" fill="url(#bg)"/>
  <g filter="url(#shadow)">
    <rect x="142" y="150" width="306" height="430" rx="34" fill="#fffdf4" stroke="#11100d" stroke-width="6"/>
    <path d="M196 222h194M196 280h142M196 338h174M196 458h202" stroke="#11100d" stroke-width="18" stroke-linecap="round"/>
    <circle cx="290" cy="396" r="42" fill="#f1b62e" stroke="#11100d" stroke-width="6"/>
    <rect x="512" y="162" width="230" height="230" rx="42" fill="#11100d"/>
    <path d="M627 210l75 72-75 72-75-72z" fill="#fff1b4"/>
    <path d="M627 210v144M552 282h150" stroke="#d79b1c" stroke-width="9" stroke-linecap="round"/>
    <circle cx="874" cy="278" r="116" fill="#fffdf4" stroke="#11100d" stroke-width="7"/>
    <path d="M874 186v184M782 278h184" stroke="#11100d" stroke-width="8" stroke-linecap="round"/>
    <path d="M822 330l105-105" stroke="#e3a520" stroke-width="18" stroke-linecap="round"/>
    <rect x="520" y="474" width="444" height="122" rx="34" fill="#11100d"/>
    <path d="M566 520h340M566 562h238" stroke="#ffd86a" stroke-width="15" stroke-linecap="round"/>
  </g>
</svg>
