<svg xmlns="http://www.w3.org/2000/svg" viewBox="0 0 1200 760" role="img" aria-labelledby="title desc">
  <title id="title">Golden editorial AI judge panel</title>
  <desc id="desc">A golden editorial judge panel led by Black women readers with diverse creators, accessible seating, and screenplay pages.</desc>
  <defs>
    <linearGradient id="bg" x1="0" x2="1" y1="0" y2="1"><stop offset="0" stop-color="#fffdf6"/><stop offset=".55" stop-color="#ffe9ab"/><stop offset="1" stop-color="#f7b23b"/></linearGradient>
    <filter id="shadow" x="-20%" y="-20%" width="140%" height="140%"><feDropShadow dx="0" dy="24" stdDeviation="22" flood-color="#5e3905" flood-opacity=".2"/></filter>
  </defs>
  <rect width="1200" height="760" rx="54" fill="url(#bg)"/>
  <rect x="92" y="98" width="1016" height="496" rx="46" fill="#11100d"/>
  <rect x="126" y="132" width="948" height="428" rx="34" fill="#fff9e7"/>
  <g filter="url(#shadow)">
    <g transform="translate(190 194)">
      <rect x="0" y="214" width="176" height="126" rx="28" fill="#11100d"/>
      <circle cx="88" cy="90" r="66" fill="#6b331f"/><path d="M22 91C25 28 82-9 135 22c35 21 44 60 26 99-45-18-89-24-139-30z" fill="#120907"/>
      <path d="M45 176l43 46 42-46" fill="none" stroke="#eab33a" stroke-width="13" stroke-linecap="round"/>
      <path d="M38 272h100" stroke="#ffd86a" stroke-width="13" stroke-linecap="round"/>
    </g>
    <g transform="translate(412 168)">
      <rect x="0" y="240" width="176" height="126" rx="28" fill="#fffdf2" stroke="#11100d" stroke-width="5"/>
      <circle cx="88" cy="96" r="70" fill="#8f5130"/><path d="M17 87C23 22 82-12 140 16c42 20 55 61 38 111-55-19-106-22-161-40z" fill="#21100b"/>
      <rect x="44" y="196" width="88" height="28" rx="14" fill="#11100d"/>
      <path d="M38 298h100" stroke="#11100d" stroke-width="13" stroke-linecap="round"/>
    </g>
    <g transform="translate(634 194)">
      <rect x="0" y="214" width="176" height="126" rx="28" fill="#11100d"/>
      <circle cx="88" cy="90" r="66" fill="#b8754c"/><path d="M35 70C45 15 110 3 145 39c24 25 20 57-4 88-35-26-66-43-106-57z" fill="#351b10"/>
      <path d="M38 272h100" stroke="#ffd86a" stroke-width="13" stroke-linecap="round"/>
    </g>
    <g transform="translate(856 180)">
      <rect x="0" y="228" width="176" height="126" rx="28" fill="#fffdf2" stroke="#11100d" stroke-width="5"/>
      <circle cx="88" cy="92" r="68" fill="#74402b"/><path d="M20 84C19 27 65-8 116 9c42 14 65 53 55 103-51-12-99-23-151-28z" fill="#120907"/>
      <path d="M38 286h100" stroke="#11100d" stroke-width="13" stroke-linecap="round"/>
      <circle cx="150" cy="206" r="22" fill="#f4be36" stroke="#11100d" stroke-width="6"/>
    </g>
  </g>
  <g fill="#11100d" opacity=".85">
    <rect x="202" y="628" width="190" height="28" rx="14"/>
    <rect x="436" y="628" width="144" height="28" rx="14"/>
    <rect x="626" y="628" width="170" height="28" rx="14"/>
    <rect x="840" y="628" width="156" height="28" rx="14"/>
  </g>
</svg>
