<svg xmlns="http://www.w3.org/2000/svg" viewBox="0 0 1200 760" role="img" aria-labelledby="title desc">
  <title id="title">Sealed screenplay vault capsule</title>
  <desc id="desc">A sealed gold and black screenplay capsule with evidence ledger cards and creator approval controls.</desc>
  <defs>
    <linearGradient id="bg" x1="0" x2="1" y1="0" y2="1"><stop offset="0" stop-color="#fffaf0"/><stop offset="1" stop-color="#ffd36a"/></linearGradient>
    <linearGradient id="capsule" x1="0" x2="1"><stop offset="0" stop-color="#22180d"/><stop offset=".48" stop-color="#fff0a5"/><stop offset="1" stop-color="#130f0a"/></linearGradient>
    <filter id="shadow" x="-20%" y="-20%" width="140%" height="140%"><feDropShadow dx="0" dy="30" stdDeviation="26" flood-color="#5e3905" flood-opacity=".24"/></filter>
  </defs>
  <rect width="1200" height="760" rx="54" fill="url(#bg)"/>
  <path d="M0 548c186-81 357-104 514-70 155 33 263 104 421 75 88-16 174-55 265-109v316H0z" fill="#fffdf4" opacity=".78"/>
  <g filter="url(#shadow)">
    <rect x="272" y="226" width="656" height="306" rx="153" fill="url(#capsule)" stroke="#11100d" stroke-width="8"/>
    <rect x="401" y="279" width="398" height="200" rx="52" fill="#fffdf2" stroke="#11100d" stroke-width="6"/>
    <path d="M460 334h280M460 386h220M460 438h250" stroke="#14100b" stroke-width="20" stroke-linecap="round"/>
    <circle cx="600" cy="535" r="62" fill="#11100d"/>
    <path d="M573 533l18 20 39-46" fill="none" stroke="#ffd86d" stroke-width="13" stroke-linecap="round" stroke-linejoin="round"/>
  </g>
  <g filter="url(#shadow)">
    <rect x="126" y="146" width="228" height="154" rx="24" fill="#fff8de" stroke="#11100d" stroke-width="5"/>
    <rect x="846" y="126" width="228" height="154" rx="24" fill="#fff8de" stroke="#11100d" stroke-width="5"/>
    <rect x="132" y="570" width="252" height="94" rx="24" fill="#11100d"/>
    <rect x="816" y="576" width="252" height="94" rx="24" fill="#11100d"/>
    <path d="M164 191h143M164 232h96M884 171h143M884 212h96" stroke="#11100d" stroke-width="15" stroke-linecap="round"/>
    <path d="M174 617h162M858 623h162" stroke="#ffd86d" stroke-width="15" stroke-linecap="round"/>
  </g>
</svg>
